<?xml version="1.0" standalone="no"?>
<!DOCTYPE svg PUBLIC "-//W3C//DTD SVG 20010904//EN"
 "http://www.w3.org/TR/2001/REC-SVG-20010904/DTD/svg10.dtd">
<svg version="1.0" xmlns="http://www.w3.org/2000/svg"
 width="408.000000pt" height="612.000000pt" viewBox="0 0 408.000000 612.000000"
 preserveAspectRatio="xMidYMid meet">

<g transform="translate(0.000000,612.000000) scale(0.100000,-0.100000)"
fill="#000000" stroke="none">
<path d="M2654 4346 c-39 -13 -123 -48 -187 -79 -65 -31 -117 -53 -117 -49 0
4 -4 0 -10 -8 -5 -8 -19 -15 -32 -16 -13 -1 -42 -7 -65 -13 -49 -13 -56 -35
-17 -53 22 -10 28 -9 47 14 17 20 34 27 72 31 28 2 84 20 125 39 41 19 97 43
124 53 35 14 44 20 31 25 -26 9 -1 25 66 43 31 8 65 19 75 25 34 20 -34 13
-112 -12z"/>
<path d="M1963 4172 c-52 -49 -63 -64 -63 -91 0 -45 48 -111 123 -171 34 -27
102 -92 151 -145 112 -121 125 -130 169 -116 57 19 137 110 137 156 0 12 -41
61 -102 123 -114 114 -115 115 -16 126 92 11 188 -12 280 -66 29 -16 50 -23
54 -17 8 14 -19 33 -94 63 -96 40 -186 52 -279 39 l-77 -11 -90 84 c-51 46
-100 84 -111 84 -11 0 -48 -26 -82 -58z m299 -149 c109 -109 198 -205 198
-214 0 -15 -81 -99 -96 -99 -3 0 10 18 30 40 20 22 36 42 36 43 0 7 -87 0 -99
-8 -7 -4 -22 4 -37 20 -13 15 -29 23 -36 19 -7 -4 -8 -3 -4 4 7 11 -6 17 -27
13 -5 -1 -7 4 -5 11 3 7 -8 21 -24 30 -15 10 -28 22 -28 28 0 5 -6 10 -14 10
-8 0 -16 3 -18 8 -5 13 -98 84 -98 75 0 -4 -4 -2 -9 6 -5 7 -11 9 -14 4 -3 -5
65 -83 153 -174 87 -90 156 -166 154 -168 -6 -7 -404 402 -404 415 0 12 124
134 136 134 4 0 97 -89 206 -197z"/>
<path d="M3180 4157 c0 -34 -27 -90 -40 -82 -10 6 -15 -17 -34 -156 -9 -63
-29 -145 -51 -205 -19 -54 -35 -100 -35 -102 0 -2 23 -1 51 1 34 3 55 10 61
21 5 9 5 16 1 16 -4 0 -3 4 3 8 9 6 64 116 64 129 0 2 -4 2 -8 -1 -4 -2 -8 4
-8 14 0 10 3 18 6 18 24 -2 31 4 25 23 -5 16 -4 19 5 14 9 -5 11 -4 6 3 -11
18 -39 15 -32 -4 3 -8 2 -12 -4 -9 -5 3 -12 -7 -15 -22 -8 -33 -27 -75 -32
-69 -2 2 5 32 17 67 42 127 57 299 29 349 -6 11 -8 7 -9 -13z m-48 -439 c-7
-7 -12 -8 -12 -2 0 6 3 14 7 17 3 4 9 5 12 2 2 -3 -1 -11 -7 -17z m-19 -48
c-3 -11 -10 -23 -16 -27 -5 -3 -8 -2 -5 3 3 5 8 17 11 27 9 24 16 22 10 -3z"/>
<path d="M1804 3851 c-108 -96 -214 -207 -214 -223 0 -17 44 -7 72 17 28 24
32 24 48 10 9 -8 21 -15 26 -15 5 0 61 51 123 114 l114 114 -13 32 c-26 62
-38 58 -156 -49z"/>
<path d="M457 3460 c-30 -35 -43 -127 -33 -222 11 -105 40 -138 129 -145 86
-7 132 6 132 38 0 23 -3 24 -70 27 -38 1 -79 4 -91 7 -33 7 -45 49 -43 154 2
127 6 131 116 131 46 0 83 4 83 10 0 19 -41 30 -118 30 -77 0 -81 -1 -105 -30z"/>
<path d="M691 3474 c0 -11 3 -14 6 -6 3 7 2 16 -1 19 -3 4 -6 -2 -5 -13z"/>
<path d="M3688 3476 c-16 -12 -16 -14 7 -24 21 -10 25 -19 25 -52 0 -57 -26
-80 -89 -80 -57 0 -95 17 -99 45 -5 33 -11 45 -22 45 -18 0 -11 -56 10 -75 20
-18 20 -19 -7 -47 -23 -24 -28 -39 -29 -81 -1 -29 3 -60 8 -70 14 -27 70 -47
133 -47 66 0 112 21 125 56 17 44 12 109 -11 138 -19 24 -20 29 -6 44 28 31
21 142 -8 142 -7 0 -15 4 -17 9 -1 5 -11 4 -20 -3z m15 -213 c22 -21 23 -86 0
-104 -10 -9 -41 -14 -80 -14 -52 0 -67 4 -79 19 -21 29 -18 92 5 108 25 18
130 11 154 -9z"/>
<path d="M1192 3263 l-2 -163 26 0 27 0 -6 75 -5 75 64 0 c63 0 65 -1 75 -30
27 -76 54 -115 82 -118 15 -2 27 -1 27 2 0 2 -16 37 -35 77 l-35 73 30 28 c17
15 30 31 30 37 0 21 -20 21 -39 -1 -18 -19 -31 -22 -112 -22 -83 -1 -92 1 -95
18 -1 10 -7 22 -13 25 -5 4 -11 24 -14 46 -2 22 -4 -33 -5 -122z"/>
<path d="M3377 3414 c-4 -4 -7 -53 -7 -108 0 -141 -6 -150 -96 -154 -92 -4
-97 2 -102 124 -3 62 -8 93 -16 91 -18 -3 -24 -35 -25 -127 -1 -77 1 -88 24
-114 24 -28 29 -29 110 -30 79 -1 86 1 112 27 28 27 28 28 28 159 0 123 -6
153 -28 132z"/>
<path d="M787 3383 c-4 -3 -7 -20 -8 -37 0 -27 -2 -28 -10 -11 -6 14 -8 -10
-5 -72 6 -143 30 -167 166 -168 65 0 91 5 112 18 35 24 59 87 52 135 -13 84
-20 107 -36 110 -14 3 -17 -11 -19 -88 -3 -67 -8 -93 -19 -100 -8 -5 -49 -10
-91 -10 -63 0 -79 3 -93 19 -10 11 -15 25 -11 31 8 12 -16 180 -25 180 -4 0
-10 -3 -13 -7z"/>
<path d="M1720 3322 c-1 -20 -3 -54 -6 -74 -7 -47 9 -98 41 -128 32 -30 134
-39 188 -16 71 31 77 43 76 159 0 56 -3 96 -6 90 -2 -7 -11 -13 -19 -13 -10 0
-14 -13 -14 -42 -1 -62 -16 -121 -36 -135 -25 -18 -124 -17 -151 2 -16 11 -23
30 -28 73 -10 90 -15 110 -31 116 -11 4 -14 -4 -14 -32z"/>
<path d="M2125 3296 c-4 -28 -5 -82 -3 -121 3 -64 5 -70 26 -73 22 -3 22 -2
22 116 0 110 -2 120 -19 125 -17 4 -21 -2 -26 -47z"/>
<path d="M2498 3245 c-1 -58 -2 -113 -2 -122 -1 -12 6 -18 19 -18 19 0 20 7
21 98 2 109 -2 133 -22 141 -11 4 -14 -14 -16 -99z"/>
<path d="M1592 3331 c-20 -12 -29 -59 -28 -146 1 -75 2 -80 24 -83 12 -2 24 3
27 10 3 8 2 62 -2 121 -6 82 -11 105 -21 98z"/>
<path d="M2249 3325 c-1 -21 -1 -24 12 -70 32 -117 65 -173 89 -149 11 11 80
202 80 221 0 7 -6 13 -14 13 -7 0 -28 -34 -47 -75 -18 -41 -36 -75 -39 -75 -4
0 -17 25 -29 56 -11 30 -28 65 -36 77 -14 21 -15 21 -16 2z"/>
<path d="M2670 3289 c0 -11 27 -12 34 -1 2 4 -4 9 -15 9 -10 1 -19 -2 -19 -8z"/>
<path d="M2795 3277 c-24 -19 -31 -96 -12 -134 20 -38 83 -57 162 -51 77 6
105 34 105 102 0 57 -5 68 -37 85 -22 11 -22 10 -13 -14 29 -77 0 -125 -76
-125 -92 0 -126 35 -104 109 10 35 1 46 -25 28z"/>
<path d="M1183 2978 c-76 -97 -176 -408 -189 -588 -10 -141 28 -265 102 -330
84 -73 206 -102 371 -88 316 26 762 282 1102 633 97 100 301 349 301 368 0 4
-9 7 -19 7 -12 0 -34 -21 -58 -52 -105 -145 -285 -337 -428 -458 -206 -175
-480 -330 -688 -390 -216 -62 -375 -49 -500 43 -63 48 -117 174 -117 278 0
119 63 353 136 506 19 39 34 74 34 77 0 11 -38 6 -47 -6z"/>
<path d="M1226 2846 c-55 -133 -96 -300 -96 -396 0 -58 22 -140 50 -185 31
-50 104 -103 168 -121 40 -12 84 -15 171 -12 101 4 130 9 223 41 103 35 307
137 358 178 14 11 0 6 -30 -11 -253 -143 -432 -198 -607 -188 -134 8 -227 67
-275 172 -19 43 -23 68 -22 161 0 111 11 171 62 333 22 67 21 82 -2 28z"/>
<path d="M1771 2802 c6 -17 14 -34 19 -37 8 -5 33 45 25 53 -3 3 -5 0 -5 -6 0
-18 -21 -14 -36 6 -12 15 -12 12 -3 -16z"/>
<path d="M2088 2823 c7 -3 16 -2 19 1 4 3 -2 6 -13 5 -11 0 -14 -3 -6 -6z"/>
<path d="M2133 2823 c9 -2 23 -2 30 0 6 3 -1 5 -18 5 -16 0 -22 -2 -12 -5z"/>
<path d="M2054 2793 c-9 -34 16 -54 65 -51 l36 1 -35 4 c-45 6 -59 19 -54 49
6 32 -4 31 -12 -3z"/>
<path d="M2175 2760 c-3 -5 -1 -10 4 -10 6 0 11 5 11 10 0 6 -2 10 -4 10 -3 0
-8 -4 -11 -10z"/>
<path d="M1563 2743 c15 -2 39 -2 55 0 15 2 2 4 -28 4 -30 0 -43 -2 -27 -4z"/>
</g>
</svg>
